# xmcd CD database file
#
# Track frame offsets:
#	150
#	19290
#	39210
#	61326
#	86775
#	113946
#	137378
#	158776
#	179404
#	198620
#	218936
#
# Disc length: 3260 seconds
#
# Revision: 0
# Processed by: cddbd v1.5.1PL2 Copyright (c) Steve Scherf et al.
# Submitted via: CDex 1.51
#
DISCID=980cba0b
DTITLE=Independant Salsa Artists - Siempre Salsa
DYEAR=2006
DGENRE=Salsa
TTITLE0=Salsa para siempre
TTITLE1=Mi Salsa
TTITLE2=El Vacio
TTITLE3=El Temblor
TTITLE4=Ritmo y Melodia
TTITLE5=Salsa Tumbao
TTITLE6=Homenaje al Bailador
TTITLE7=Descarga Cache
TTITLE8=Con Tumba, Tres, y Bongo
TTITLE9=La Hamaca
TTITLE10=Descarga Latin Vibe
EXTD=YEAR: 2006
EXTT0=
EXTT1=
EXTT2=
EXTT3=
EXTT4=
EXTT5=
EXTT6=
EXTT7=
EXTT8=
EXTT9=
EXTT10=
PLAYORDER=
